<svg xmlns="http://www.w3.org/2000/svg" viewBox="0 0 256 256" role="img" aria-labelledby="title desc">
  <title id="title">Calory logo concept v2</title>
  <desc id="desc">Gradient circle with an upward arrow and a leaf above it.</desc>
  <defs>
    <linearGradient id="bgGradient" x1="32" y1="28" x2="224" y2="228" gradientUnits="userSpaceOnUse">
      <stop offset="0" stop-color="#7EE35C" />
      <stop offset="0.52" stop-color="#22C55E" />
      <stop offset="1" stop-color="#06B6D4" />
    </linearGradient>
    <radialGradient id="glowGradient" cx="0" cy="0" r="1" gradientUnits="userSpaceOnUse"
      gradientTransform="translate(88 74) rotate(48) scale(108 96)">
      <stop offset="0" stop-color="#FFFFFF" stop-opacity="0.42" />
      <stop offset="1" stop-color="#FFFFFF" stop-opacity="0" />
    </radialGradient>
    <linearGradient id="leafGradient" x1="118" y1="50" x2="156" y2="106" gradientUnits="userSpaceOnUse">
      <stop offset="0" stop-color="#E9FFD7" />
      <stop offset="1" stop-color="#B8F28B" />
    </linearGradient>
    <filter id="softShadow" x="-20%" y="-20%" width="140%" height="140%">
      <feDropShadow dx="0" dy="10" stdDeviation="10" flood-color="#0F172A" flood-opacity="0.18" />
    </filter>
  </defs>

  <circle cx="128" cy="128" r="112" fill="url(#bgGradient)" />
  <circle cx="128" cy="128" r="112" fill="url(#glowGradient)" />
  <circle cx="128" cy="128" r="108" fill="none" stroke="rgba(255,255,255,0.22)" />

  <g filter="url(#softShadow)">
    <path
      d="M128 182c-9.4 0-17-7.6-17-17v-51.7H95.7c-6.9 0-10.4-8.3-5.6-13.3l32.3-33.6c3.1-3.3 8.2-3.3 11.4 0l32.3 33.6c4.8 5 1.3 13.3-5.6 13.3H145V165c0 9.4-7.6 17-17 17Z"
      fill="#FFFFFF"
    />
    <path
      d="M133.2 56.8c17.3 0 31.7 12.8 34.1 29.4c-17.9 2.8-31.6 10.1-40.9 21.7c-8.7-5.5-13.8-14.6-13.8-25.3c0-14.4 9.2-25.8 20.6-25.8Z"
      fill="url(#leafGradient)"
    />
    <path
      d="M129.7 102.6c5.6-13.5 15.5-25.7 29.8-36.6"
      fill="none"
      stroke="#FFFFFF"
      stroke-opacity="0.72"
      stroke-width="5"
      stroke-linecap="round"
    />
  </g>
</svg>
