<svg version="1.1" id="Layer_1" xmlns="http://www.w3.org/2000/svg" xmlns:xlink="http://www.w3.org/1999/xlink" x="0px" y="0px"
	 width="100%" viewBox="0 0 1254 1254" enable-background="new 0 0 1254 1254" xml:space="preserve">
<path fill="none" opacity="0" stroke="none" 
	d="
M829.000000,1255.000000 
	C552.666687,1255.000000 276.833344,1255.000000 1.000000,1255.000000 
	C1.000000,837.000000 1.000000,419.000000 1.000000,1.000000 
	C419.000000,1.000000 837.000000,1.000000 1255.000000,1.000000 
	C1255.000000,419.000000 1255.000000,837.000000 1255.000000,1255.000000 
	C1113.166626,1255.000000 971.333313,1255.000000 829.000000,1255.000000 
M907.291565,616.489868 
	C907.246643,616.322571 907.201782,616.155212 907.277954,615.137695 
	C907.182556,613.426758 907.087097,611.715820 907.136841,609.084961 
	C907.027954,606.268860 907.161072,603.417969 906.763123,600.643311 
	C905.719788,593.368774 904.444946,586.127502 903.177856,578.160583 
	C903.130981,577.444702 903.084045,576.728882 903.346863,575.665405 
	C903.270996,575.092896 903.195068,574.520325 903.179993,573.100037 
	C901.430908,566.400513 899.681763,559.701050 898.140564,552.357971 
	C898.231018,551.869751 898.519348,551.316162 898.382935,550.902771 
	C895.104370,540.966675 892.177612,530.887756 888.320496,521.179016 
	C885.876404,515.026672 877.196594,511.945312 870.819336,514.114380 
	C855.388489,519.362793 839.972412,524.659363 824.619263,530.129883 
	C816.827881,532.906006 812.290161,539.204529 813.125122,547.461975 
	C813.697754,553.125244 816.041931,558.609375 817.720398,564.966736 
	C819.279480,571.318604 820.838623,577.670532 822.296631,584.560608 
	C822.498352,585.053406 822.700073,585.546143 822.847046,586.793579 
	C822.986511,587.533752 823.125977,588.273987 823.195618,589.832642 
	C824.211365,599.890747 825.227051,609.948792 826.093994,620.931824 
	C825.670044,630.593628 825.246094,640.255432 824.434143,650.599915 
	C822.353760,661.070374 820.273376,671.540894 817.845703,682.689087 
	C812.563843,696.126038 807.281921,709.563049 801.489014,723.451294 
	C793.216736,738.382446 784.530823,753.032776 772.264587,765.959839 
	C771.179810,767.303589 770.095032,768.647339 768.425354,770.308655 
	C764.950195,773.881531 761.475037,777.454407 757.378296,781.243164 
	C755.439880,783.100891 753.501526,784.958557 751.083435,787.252075 
	C747.038757,790.459595 742.994141,793.667114 738.287354,797.073181 
	C732.192932,801.153015 726.098450,805.232849 719.353210,809.498047 
	C716.439880,811.084412 713.541504,812.698975 710.610779,814.252563 
	C691.503174,824.380676 671.253662,831.194397 649.149780,835.018127 
	C642.039185,835.770630 634.918762,837.228577 627.820007,837.129395 
	C612.876709,836.920654 597.944824,835.895508 582.236694,834.944641 
	C573.891174,833.100464 565.545715,831.256287 556.664795,829.068848 
	C555.437927,828.741760 554.210999,828.414673 552.506226,827.880310 
	C552.332764,827.888306 552.159302,827.896362 551.376099,827.529297 
	C538.685364,821.969666 525.994568,816.410095 512.833008,810.289856 
	C510.882965,809.441467 508.701782,808.911316 507.021729,807.691223 
	C498.332123,801.380127 489.770630,794.892700 480.799591,787.938782 
	C470.909149,777.855469 461.018738,767.772095 450.947906,757.055115 
	C443.017090,744.684265 435.086243,732.313477 427.031525,719.228271 
	C425.703033,716.400818 424.104797,713.666443 423.092041,710.730103 
	C418.304199,696.848694 413.676422,682.912048 409.032684,668.151489 
	C407.316864,656.767151 405.601074,645.382751 404.015900,633.207703 
	C404.010956,632.139465 404.006012,631.071228 404.430908,629.353577 
	C404.335602,626.213562 404.240265,623.073486 404.325317,619.022888 
	C404.859680,611.682129 405.394012,604.341431 406.191589,596.240479 
	C409.771332,581.493225 413.351074,566.745911 417.316437,551.384277 
	C422.665161,539.966309 428.013916,528.548279 433.870819,516.708496 
	C441.282257,506.207062 448.693665,495.705658 456.689728,484.866577 
	C467.156830,474.972931 477.623932,465.079254 488.741150,454.954651 
	C493.102661,451.955811 497.297424,448.670288 501.859833,446.016907 
	C511.829224,440.218933 521.985474,434.742218 532.720886,429.101410 
	C533.518555,428.851715 534.316162,428.601990 535.589478,428.264618 
	C535.589478,428.264618 536.000488,428.009613 536.738098,427.951080 
	C545.662781,424.974976 554.396851,421.013000 563.554565,419.242249 
	C579.252686,416.206818 595.215637,414.541046 611.949219,412.584778 
	C640.969177,412.286316 668.807007,417.842255 695.462341,429.353516 
	C704.850159,433.407654 712.836548,429.492432 716.256226,419.708893 
	C721.802795,403.840820 727.480530,388.016022 733.333008,372.258423 
	C736.907104,362.635742 734.143494,355.120056 724.822998,350.965393 
	C691.254395,336.002045 656.111450,327.998810 619.337524,327.414062 
	C586.750854,326.895874 554.824097,331.399048 524.165100,342.420410 
	C508.276886,348.131927 493.154755,355.974365 477.019806,362.995819 
	C466.310913,369.864899 455.601990,376.733978 444.315063,383.802307 
	C443.860718,384.193420 443.406372,384.584503 442.318176,385.188660 
	C440.646973,386.814026 438.975800,388.439392 436.630219,390.056488 
	C435.028076,391.212555 433.235077,392.177185 431.853455,393.554504 
	C419.154236,406.213837 406.526337,418.944702 393.296204,432.032288 
	C391.313568,434.488617 389.288330,436.911957 387.355225,439.406677 
	C375.132538,455.180084 364.321594,471.835388 355.371429,490.417542 
	C346.960907,507.656494 339.550964,525.274780 334.688202,544.650696 
	C332.095123,557.092834 329.502045,569.535034 326.528839,582.660095 
	C325.669739,596.105896 324.810638,609.551636 323.780945,623.922668 
	C324.554169,635.615906 325.327393,647.309204 325.999664,659.848999 
	C326.320374,662.306030 326.434082,664.811584 326.995880,667.212158 
	C330.260132,681.159973 333.629669,695.083191 336.927399,709.793518 
	C343.146667,725.239502 349.365936,740.685486 355.774567,756.840576 
	C363.322357,769.553467 370.870148,782.266418 378.687073,795.669495 
	C389.433929,808.518311 400.180786,821.367126 411.215637,834.801880 
	C420.136353,842.555725 429.057098,850.309570 438.315857,858.635986 
	C450.544952,866.764771 462.774048,874.893555 475.564514,883.440613 
	C491.374969,890.635803 507.185425,897.830994 523.530518,905.436340 
	C525.016418,905.894592 526.502319,906.352844 528.440857,907.081848 
	C528.616638,907.079041 528.792419,907.076233 529.563171,907.483398 
	C550.891296,914.422241 572.651245,919.237427 595.379700,921.089417 
	C595.906372,921.034363 596.433044,920.979309 597.828552,921.120728 
	C611.886780,921.081665 625.944946,921.042603 640.896301,921.157349 
	C672.685608,918.273621 703.529785,911.804871 732.727478,896.961731 
	C732.848083,896.826538 732.968628,896.691406 733.413086,896.958435 
	C739.316956,893.992676 745.220886,891.026917 751.795898,887.810181 
	C756.851318,885.122314 762.104370,882.747375 766.931702,879.698425 
	C818.398010,847.192383 856.729492,803.293762 881.676819,747.069702 
	C881.931885,746.334045 882.187012,745.598389 882.869995,744.394043 
	C883.002075,743.780090 883.134155,743.166138 883.798950,742.035828 
	C888.166687,729.467773 892.626160,716.930176 896.826599,704.306458 
	C897.692383,701.704468 897.591980,698.781006 898.208130,695.479126 
	C898.483765,694.988464 898.759338,694.497864 899.321350,693.323608 
	C899.451904,692.597473 899.582458,691.871338 900.042236,690.507935 
	C901.317505,683.341064 902.592773,676.174194 904.162598,668.220459 
	C904.544495,665.097412 905.020874,661.982422 905.289185,658.849609 
	C905.912659,651.571777 906.435791,644.285400 907.192810,636.166687 
	C907.174622,634.455872 907.156433,632.745117 907.339050,630.402893 
	C907.234009,628.935730 907.129028,627.468567 907.059021,625.176025 
	C907.108459,623.802124 907.157898,622.428223 907.357788,620.250122 
	C907.296997,619.165588 907.236267,618.080994 907.291565,616.489868 
M773.696350,394.850433 
	C773.696350,394.850433 773.749023,394.760345 773.183899,395.175842 
	C770.425476,404.703339 767.667053,414.230835 764.209290,424.048645 
	C759.576355,441.118744 759.006470,458.326599 761.884644,475.839661 
	C770.987183,468.276245 779.118896,460.459686 787.277954,452.671844 
	C795.545593,444.780487 803.840149,436.917480 812.739807,428.798828 
	C822.852173,420.256775 832.964478,411.714722 843.720886,402.939087 
	C845.744568,401.340393 847.768311,399.741699 849.791992,398.143005 
	C849.987915,398.385345 850.183777,398.627716 850.379700,398.870056 
	C847.599243,402.278259 844.818848,405.686462 841.472595,409.430847 
	C833.897766,418.460175 826.322937,427.489502 818.162781,436.871277 
	C812.591064,443.163940 807.019348,449.456635 800.906555,456.079773 
	C792.274109,465.825439 783.641663,475.571106 774.427917,485.972992 
	C776.608032,486.566528 777.493164,486.930359 778.408508,487.038666 
	C798.945190,489.468018 819.236023,488.224731 839.173462,482.620605 
	C857.510681,477.466278 874.054504,468.739136 889.657104,456.785980 
	C891.125549,455.436310 892.593994,454.086670 894.435242,452.617126 
	C894.671997,452.469574 894.816040,452.258698 895.484680,451.706879 
	C901.108643,445.469879 906.732544,439.232910 912.874146,432.636200 
	C916.580017,426.423035 920.285950,420.209900 924.338806,413.408752 
	C931.651184,403.541412 934.250671,391.770447 937.677673,380.296387 
	C937.677673,380.296387 937.717468,380.273590 938.301208,379.923553 
	C938.425720,379.253693 938.550232,378.583862 939.100159,377.421417 
	C941.096619,368.610107 943.093079,359.798798 945.321594,350.230804 
	C945.281128,349.185272 945.240662,348.139740 945.792358,346.739380 
	C945.930908,345.849457 946.069397,344.959534 946.581848,343.387054 
	C948.835754,327.435974 950.127502,311.435303 949.706055,294.839233 
	C947.573730,295.205902 946.124573,295.371552 944.716919,295.709839 
	C926.261414,300.145050 907.758240,304.395752 889.373230,309.107269 
	C862.077148,316.102448 836.001404,325.938873 813.513916,343.564453 
	C812.028809,344.728485 810.936523,346.393829 809.325684,347.753448 
	C809.325684,347.753448 809.019470,347.910278 808.363831,347.907928 
	C808.075928,348.228546 807.788086,348.549133 806.922058,349.132324 
	C796.889771,357.655273 788.352783,367.433044 781.373840,379.381561 
	C778.894165,384.251587 776.414429,389.121582 773.656616,394.327240 
	C773.656616,394.327240 773.639771,394.762756 773.696350,394.850433 
M581.148315,594.622253 
	C558.303955,605.427917 545.927612,627.535828 547.768555,654.248596 
	C550.009888,686.771729 582.359741,712.220764 614.489380,706.736755 
	C647.231262,701.148254 668.854980,670.732056 663.591309,637.901733 
	C663.295959,636.059631 663.934326,633.613220 665.026001,632.080383 
	C670.337585,624.621887 675.928223,617.360962 681.462952,610.062622 
	C701.995178,582.988098 722.576599,555.950806 743.064880,528.843079 
	C748.299500,521.917114 745.706787,513.070435 737.812500,510.545288 
	C732.947327,508.989136 728.719666,510.561676 724.745361,513.524841 
	C691.097900,538.611572 657.434937,563.677734 623.676941,588.615356 
	C622.080933,589.794373 619.416260,590.427917 617.468079,590.082336 
	C605.119080,587.891907 593.268799,589.207886 581.148315,594.622253 
z"/>
<path fill="#92D33F" opacity="1.000000" stroke="none" 
	d="
M477.686584,362.854126 
	C493.154755,355.974365 508.276886,348.131927 524.165100,342.420410 
	C554.824097,331.399048 586.750854,326.895874 619.337524,327.414062 
	C656.111450,327.998810 691.254395,336.002045 724.822998,350.965393 
	C734.143494,355.120056 736.907104,362.635742 733.333008,372.258423 
	C727.480530,388.016022 721.802795,403.840820 716.256226,419.708893 
	C712.836548,429.492432 704.850159,433.407654 695.462341,429.353516 
	C668.807007,417.842255 640.969177,412.286316 611.640015,412.146271 
	C613.110779,411.233582 614.890808,410.759369 617.422974,410.084808 
	C613.331909,406.620544 610.220764,402.924011 606.260010,400.849762 
	C597.592285,396.310425 588.256226,393.971771 578.270569,393.836090 
	C572.765442,393.761322 567.157043,392.487762 561.822510,390.960480 
	C555.612244,389.182526 549.679626,386.453522 543.567810,384.304352 
	C540.791992,383.328217 537.828979,382.892944 535.030701,381.970428 
	C528.222656,379.726044 521.457458,377.351196 514.683838,375.003540 
	C512.990051,374.416504 511.302399,373.796082 509.658508,373.083557 
	C503.535767,370.429718 497.636139,366.895966 491.251282,365.338440 
	C486.885132,364.273376 482.709900,360.615265 477.686584,362.854126 
z"/>
<path fill="#1E1E1F" opacity="1.000000" stroke="none" 
	d="
M581.477539,594.432129 
	C593.268799,589.207886 605.119080,587.891907 617.468079,590.082336 
	C619.416260,590.427917 622.080933,589.794373 623.676941,588.615356 
	C657.434937,563.677734 691.097900,538.611572 724.745361,513.524841 
	C728.719666,510.561676 732.947327,508.989136 737.812500,510.545288 
	C745.706787,513.070435 748.299500,521.917114 743.064880,528.843079 
	C722.576599,555.950806 701.995178,582.988098 681.462952,610.062622 
	C675.928223,617.360962 670.337585,624.621887 665.026001,632.080383 
	C663.934326,633.613220 663.295959,636.059631 663.591309,637.901733 
	C668.854980,670.732056 647.231262,701.148254 614.489380,706.736755 
	C582.359741,712.220764 550.009888,686.771729 547.768555,654.248596 
	C545.927612,627.535828 558.303955,605.427917 581.477539,594.432129 
M590.159790,659.171204 
	C598.429443,668.864014 609.588013,670.260986 618.748230,662.750183 
	C626.941406,656.032288 628.146179,643.849915 621.451721,635.413940 
	C614.916992,627.179260 603.867615,625.545959 595.074524,631.515015 
	C586.357727,637.432129 584.209778,648.364258 590.159790,659.171204 
z"/>
<path fill="#06BDC4" opacity="1.000000" stroke="none" 
	d="
M881.218628,747.453308 
	C856.729492,803.293762 818.398010,847.192383 766.931702,879.698425 
	C762.104370,882.747375 756.851318,885.122314 751.135376,887.780273 
	C745.230347,885.019226 747.624878,880.601562 748.294189,876.791382 
	C748.895691,873.366882 749.176331,869.133667 754.632874,869.831360 
	C755.149475,869.897400 755.881653,869.363159 756.303772,868.911438 
	C759.533264,865.455505 758.148438,855.218079 754.132935,852.567871 
	C749.706482,849.646423 748.685181,845.608215 750.926453,841.001343 
	C751.882690,839.035767 752.336914,836.825928 753.143494,834.345032 
	C749.767639,834.092102 747.179077,833.898193 745.488220,833.771545 
	C739.409729,822.071838 728.236023,818.547913 718.068604,813.541138 
	C718.800476,811.942078 719.402283,810.627380 720.004028,809.312622 
	C726.098450,805.232849 732.192932,801.153015 738.760864,797.306335 
	C740.333740,799.614990 742.063904,802.664001 744.241516,800.358032 
	C748.645142,795.695068 752.123596,790.158325 756.093506,784.764709 
	C756.402588,784.276978 756.661560,784.088562 757.387207,783.987610 
	C761.705444,784.269226 764.375122,782.878052 766.052185,779.034790 
	C766.661011,777.639771 768.903687,776.351624 770.556274,776.119202 
	C779.504272,774.860413 788.531433,774.153259 797.468201,772.829956 
	C802.011108,772.157349 806.669434,771.145752 810.829956,769.288940 
	C816.159668,766.910217 821.014343,763.478577 826.143860,760.626770 
	C826.883118,760.215759 828.014404,760.471069 828.963501,760.482605 
	C834.660950,760.551819 840.444275,759.521423 845.965149,761.939697 
	C846.612122,762.223022 847.616760,761.901672 848.389343,761.653931 
	C857.302063,758.796509 864.433960,752.715515 872.426331,748.193970 
	C874.461304,747.042786 876.262878,744.971863 877.429016,742.904663 
	C879.428711,739.359497 881.133606,739.596619 883.266235,742.552185 
	C883.134155,743.166138 883.002075,743.780090 882.495422,744.285522 
	C881.335388,744.103027 880.549866,744.029114 879.764404,743.955139 
	C880.249146,745.121216 880.733887,746.287231 881.218628,747.453308 
z"/>
<path fill="#0DBABB" opacity="1.000000" stroke="none" 
	d="
M719.678589,809.405334 
	C719.402283,810.627380 718.800476,811.942078 718.068604,813.541138 
	C728.236023,818.547913 739.409729,822.071838 745.488220,833.771545 
	C747.179077,833.898193 749.767639,834.092102 753.143494,834.345032 
	C752.336914,836.825928 751.882690,839.035767 750.926453,841.001343 
	C748.685181,845.608215 749.706482,849.646423 754.132935,852.567871 
	C758.148438,855.218079 759.533264,865.455505 756.303772,868.911438 
	C755.881653,869.363159 755.149475,869.897400 754.632874,869.831360 
	C749.176331,869.133667 748.895691,873.366882 748.294189,876.791382 
	C747.624878,880.601562 745.230347,885.019226 750.799805,887.905762 
	C745.220886,891.026917 739.316956,893.992676 733.227661,896.424683 
	C733.222046,895.276550 733.394775,894.659912 733.583069,894.048157 
	C734.033325,892.584717 734.490967,891.123474 734.945618,889.661377 
	C733.018433,890.110840 730.778992,890.090088 729.234375,891.115723 
	C726.660034,892.825317 727.911194,895.237366 732.198547,897.085266 
	C703.529785,911.804871 672.685608,918.273621 640.162109,920.787537 
	C636.955566,920.277100 634.420227,920.417236 632.036316,919.882568 
	C630.759399,919.596191 629.046143,918.293274 628.814636,917.181580 
	C628.603699,916.168518 629.842773,914.285889 630.938721,913.671448 
	C634.689148,911.568909 638.657959,909.855774 642.411316,908.057495 
	C638.415894,901.943787 635.268738,895.834900 637.516418,888.325378 
	C645.544434,889.364929 647.392761,886.934692 647.239319,878.931458 
	C647.156494,874.608337 648.732544,870.032532 650.478088,865.964600 
	C651.896484,862.659058 654.700989,859.953735 656.851990,856.954468 
	C657.661682,855.825500 658.141907,854.358337 659.156372,853.498657 
	C661.506775,851.506958 663.645752,844.266724 661.685547,840.946411 
	C660.856567,839.542236 657.573303,839.283386 655.353027,839.081177 
	C652.585449,838.829285 649.773254,839.160400 650.003052,835.093872 
	C671.253662,831.194397 691.503174,824.380676 710.610779,814.252563 
	C713.541504,812.698975 716.439880,811.084412 719.678589,809.405334 
z"/>
<path fill="#16B9B2" opacity="1.000000" stroke="none" 
	d="
M649.576416,835.056030 
	C649.773254,839.160400 652.585449,838.829285 655.353027,839.081177 
	C657.573303,839.283386 660.856567,839.542236 661.685547,840.946411 
	C663.645752,844.266724 661.506775,851.506958 659.156372,853.498657 
	C658.141907,854.358337 657.661682,855.825500 656.851990,856.954468 
	C654.700989,859.953735 651.896484,862.659058 650.478088,865.964600 
	C648.732544,870.032532 647.156494,874.608337 647.239319,878.931458 
	C647.392761,886.934692 645.544434,889.364929 637.516418,888.325378 
	C635.268738,895.834900 638.415894,901.943787 642.411316,908.057495 
	C638.657959,909.855774 634.689148,911.568909 630.938721,913.671448 
	C629.842773,914.285889 628.603699,916.168518 628.814636,917.181580 
	C629.046143,918.293274 630.759399,919.596191 632.036316,919.882568 
	C634.420227,920.417236 636.955566,920.277100 639.715515,920.710693 
	C625.944946,921.042603 611.886780,921.081665 597.263245,920.813599 
	C596.155823,920.606018 595.613708,920.705627 595.071594,920.805176 
	C572.651245,919.237427 550.891296,914.422241 529.423706,906.950684 
	C530.196960,904.010803 531.117920,901.606750 532.018433,899.195007 
	C532.417725,898.125610 532.711975,896.132935 533.161804,896.101440 
	C538.329590,895.739685 539.828674,890.764648 543.243713,888.259338 
	C544.964478,886.996826 546.170044,884.954224 547.405884,883.127197 
	C549.180908,880.503113 550.767273,877.751526 552.440918,875.058533 
	C553.381042,873.545898 554.179443,871.911499 555.312561,870.558838 
	C558.162048,867.157043 561.313965,861.015015 564.076294,861.157959 
	C569.796631,861.453796 571.730591,860.080750 574.300964,855.160950 
	C577.084900,849.832397 582.260681,845.768433 586.282166,841.058044 
	C587.046631,840.162659 587.292908,838.824768 587.605713,838.094177 
	C585.779663,836.946777 584.393921,836.076111 583.008240,835.205383 
	C597.944824,835.895508 612.876709,836.920654 627.820007,837.129395 
	C634.918762,837.228577 642.039185,835.770630 649.576416,835.056030 
z"/>
<path fill="#80CE2D" opacity="1.000000" stroke="none" 
	d="
M809.661499,347.825989 
	C810.936523,346.393829 812.028809,344.728485 813.513916,343.564453 
	C836.001404,325.938873 862.077148,316.102448 889.373230,309.107269 
	C907.758240,304.395752 926.261414,300.145050 944.716919,295.709839 
	C946.124573,295.371552 947.573730,295.205902 949.706055,294.839233 
	C950.127502,311.435303 948.835754,327.435974 946.043396,343.746399 
	C945.403381,345.101868 945.301819,346.098053 945.200256,347.094208 
	C945.240662,348.139740 945.281128,349.185272 944.839600,350.670563 
	C943.936707,351.570068 943.311340,351.959839 943.126404,352.500366 
	C941.137024,358.315277 940.548584,358.455597 934.569214,356.432220 
	C932.360291,355.684753 929.818481,355.853699 927.422058,355.742218 
	C922.694580,355.522308 917.962097,355.412842 913.232666,355.231812 
	C903.122253,354.844849 893.015442,354.280487 882.901489,354.090179 
	C872.850647,353.901031 862.792847,354.077850 852.738098,354.100525 
	C846.166321,354.115326 839.594604,354.162476 833.022827,354.153046 
	C829.945679,354.148621 826.660217,354.714752 823.837769,353.836945 
	C818.960876,352.320312 814.371521,349.879242 809.661499,347.825989 
z"/>
<path fill="#89D042" opacity="1.000000" stroke="none" 
	d="
M477.353210,362.924988 
	C482.709900,360.615265 486.885132,364.273376 491.251282,365.338440 
	C497.636139,366.895966 503.535767,370.429718 509.658508,373.083557 
	C511.302399,373.796082 512.990051,374.416504 514.683838,375.003540 
	C521.457458,377.351196 528.222656,379.726044 535.030701,381.970428 
	C537.828979,382.892944 540.791992,383.328217 543.567810,384.304352 
	C549.679626,386.453522 555.612244,389.182526 561.822510,390.960480 
	C567.157043,392.487762 572.765442,393.761322 578.270569,393.836090 
	C588.256226,393.971771 597.592285,396.310425 606.260010,400.849762 
	C610.220764,402.924011 613.331909,406.620544 617.422974,410.084808 
	C614.890808,410.759369 613.110779,411.233582 611.199097,412.003967 
	C595.215637,414.541046 579.252686,416.206818 563.554565,419.242249 
	C554.396851,421.013000 545.662781,424.974976 536.250854,427.815704 
	C535.546997,427.904327 535.330444,428.128326 535.113831,428.352325 
	C534.316162,428.601990 533.518555,428.851715 532.145874,428.815979 
	C527.777954,427.994995 523.835876,427.741760 523.467651,422.473114 
	C523.430542,421.942139 521.832703,420.990082 521.120911,421.119904 
	C515.138062,422.211395 511.149139,418.343781 506.873352,415.434204 
	C503.122192,412.881653 499.931976,409.450684 496.051514,407.156067 
	C491.407593,404.410126 486.345917,402.895325 480.676941,402.544861 
	C472.528595,402.041077 464.385620,400.584717 456.381622,398.873962 
	C449.462311,397.395020 441.713837,397.187317 437.304596,390.064758 
	C438.975800,388.439392 440.646973,386.814026 442.965607,385.052734 
	C444.039734,384.478882 444.466431,384.040985 444.893097,383.603058 
	C455.601990,376.733978 466.310913,369.864899 477.353210,362.924988 
z"/>
<path fill="#7ECE47" opacity="1.000000" stroke="none" 
	d="
M436.967407,390.060608 
	C441.713837,397.187317 449.462311,397.395020 456.381622,398.873962 
	C464.385620,400.584717 472.528595,402.041077 480.676941,402.544861 
	C486.345917,402.895325 491.407593,404.410126 496.051514,407.156067 
	C499.931976,409.450684 503.122192,412.881653 506.873352,415.434204 
	C511.149139,418.343781 515.138062,422.211395 521.120911,421.119904 
	C521.832703,420.990082 523.430542,421.942139 523.467651,422.473114 
	C523.835876,427.741760 527.777954,427.994995 531.818115,428.832428 
	C521.985474,434.742218 511.829224,440.218933 501.859833,446.016907 
	C497.297424,448.670288 493.102661,451.955811 488.214294,454.762329 
	C483.034363,451.683502 478.246918,450.229889 472.622894,451.746002 
	C470.603668,452.290344 467.828857,451.760101 465.928314,450.736908 
	C453.272675,443.923553 438.870300,444.585541 425.509613,440.921295 
	C418.489166,438.995911 411.491516,440.336517 404.506287,439.907288 
	C396.398041,439.408997 394.566589,437.932739 393.877686,431.654785 
	C406.526337,418.944702 419.154236,406.213837 431.853455,393.554504 
	C433.235077,392.177185 435.028076,391.212555 436.967407,390.060608 
z"/>
<path fill="#47BD77" opacity="1.000000" stroke="none" 
	d="
M408.991577,668.995117 
	C413.676422,682.912048 418.304199,696.848694 423.092041,710.730103 
	C424.104797,713.666443 425.703033,716.400818 426.735931,719.629761 
	C425.606628,720.542542 424.702362,720.967102 423.950317,721.578857 
	C417.517822,726.810791 414.705322,735.498169 406.252472,739.027283 
	C401.088684,741.183105 396.945923,745.758850 391.798706,747.986267 
	C384.859802,750.989075 377.490967,753.175903 370.122040,754.943115 
	C365.450134,756.063477 360.442352,755.783447 355.585205,756.131470 
	C349.365936,740.685486 343.146667,725.239502 337.218384,709.183105 
	C337.197052,706.346069 336.884735,704.119324 336.431305,700.886536 
	C338.905945,700.006470 341.679626,698.666992 344.605164,698.062805 
	C348.955322,697.164490 353.801422,697.691711 357.744507,695.999695 
	C366.184174,692.378235 375.341034,690.167419 382.650940,684.032532 
	C385.132294,681.950073 388.167084,680.156067 391.249084,679.240845 
	C396.907104,677.560608 402.997467,677.078857 405.550110,670.354431 
	C405.844910,669.577820 407.804077,669.432922 408.991577,668.995117 
z"/>
<path fill="#69C635" opacity="1.000000" stroke="none" 
	d="
M842.038452,409.094666 
	C844.818848,405.686462 847.599243,402.278259 850.379700,398.870056 
	C850.183777,398.627716 849.987915,398.385345 849.791992,398.143005 
	C847.768311,399.741699 845.744568,401.340393 843.169678,402.753632 
	C839.890381,402.598572 837.143677,402.843628 834.438416,402.609924 
	C830.198486,402.243591 825.998108,401.225586 821.760132,401.076538 
	C815.055725,400.840759 808.329773,400.964325 801.620850,401.180481 
	C795.285217,401.384674 788.809265,401.205292 782.681152,402.524231 
	C778.393005,403.447144 775.521301,403.322845 773.049255,399.465271 
	C773.279297,398.768250 773.640381,398.010437 773.760437,397.216156 
	C773.881287,396.416412 773.762695,395.580444 773.749023,394.760345 
	C773.749023,394.760345 773.696350,394.850433 773.878784,394.821045 
	C774.178101,394.722870 774.295105,394.654083 774.412109,394.585327 
	C774.252991,394.387421 774.093872,394.189514 773.934753,393.991608 
	C776.414429,389.121582 778.894165,384.251587 782.064575,379.182739 
	C785.864319,379.258759 788.976196,379.790558 792.081909,379.756500 
	C799.191833,379.678436 806.329834,378.783783 813.400818,379.189362 
	C830.371887,380.162781 847.294312,382.036652 864.269714,382.861481 
	C873.332275,383.301880 882.464539,382.336121 891.563354,381.955841 
	C892.536377,381.915192 893.485291,381.450592 894.463013,381.343445 
	C900.958191,380.631683 907.171570,379.152161 913.987732,381.545715 
	C920.600769,383.867950 927.985779,384.167969 934.813232,380.691254 
	C935.623413,380.278748 936.727600,380.443665 937.695496,380.340942 
	C934.250671,391.770447 931.651184,403.541412 923.727539,413.702087 
	C921.628113,414.081177 920.140869,414.189758 918.651550,414.248901 
	C911.795837,414.521240 904.939148,414.992523 898.083679,414.977325 
	C892.391052,414.964691 886.686035,413.951843 881.010803,414.134827 
	C871.779358,414.432495 862.544800,415.123840 853.356079,416.077423 
	C847.506470,416.684448 843.698669,414.851776 842.038452,409.094666 
z"/>
<path fill="#72CA4D" opacity="1.000000" stroke="none" 
	d="
M393.586945,431.843536 
	C394.566589,437.932739 396.398041,439.408997 404.506287,439.907288 
	C411.491516,440.336517 418.489166,438.995911 425.509613,440.921295 
	C438.870300,444.585541 453.272675,443.923553 465.928314,450.736908 
	C467.828857,451.760101 470.603668,452.290344 472.622894,451.746002 
	C478.246918,450.229889 483.034363,451.683502 487.889221,454.877808 
	C477.623932,465.079254 467.156830,474.972931 456.162781,484.720642 
	C452.595642,484.153961 449.537262,483.284515 446.518982,483.406464 
	C440.370697,483.654877 434.246704,484.469910 428.106903,484.982086 
	C426.128662,485.147095 423.945801,484.590698 422.181793,485.243378 
	C418.140533,486.738647 414.747711,485.634003 411.314026,483.678864 
	C406.009338,480.658325 400.380341,480.277557 394.509827,481.661804 
	C392.282196,482.187073 389.957184,482.291748 387.719574,482.783752 
	C382.436401,483.945496 376.595490,484.184265 372.062958,486.726715 
	C366.722382,489.722473 361.826874,491.565247 355.875702,489.961823 
	C364.321594,471.835388 375.132538,455.180084 387.355225,439.406677 
	C389.288330,436.911957 391.313568,434.488617 393.586945,431.843536 
z"/>
<path fill="#0DC1C3" opacity="1.000000" stroke="none" 
	d="
M883.532593,742.294006 
	C881.133606,739.596619 879.428711,739.359497 877.429016,742.904663 
	C876.262878,744.971863 874.461304,747.042786 872.426331,748.193970 
	C864.433960,752.715515 857.302063,758.796509 848.389343,761.653931 
	C847.616760,761.901672 846.612122,762.223022 845.965149,761.939697 
	C840.444275,759.521423 834.660950,760.551819 828.963501,760.482605 
	C828.014404,760.471069 826.883118,760.215759 826.143860,760.626770 
	C821.014343,763.478577 816.159668,766.910217 810.829956,769.288940 
	C806.669434,771.145752 802.011108,772.157349 797.468201,772.829956 
	C788.531433,774.153259 779.504272,774.860413 770.556274,776.119202 
	C768.903687,776.351624 766.661011,777.639771 766.052185,779.034790 
	C764.375122,782.878052 761.705444,784.269226 757.514648,783.697632 
	C757.490173,782.610596 757.745056,781.818909 757.999878,781.027283 
	C761.475037,777.454407 764.950195,773.881531 769.072021,770.114258 
	C770.760071,768.494812 771.801453,767.069824 772.842773,765.644897 
	C784.530823,753.032776 793.216736,738.382446 802.042969,723.459106 
	C803.062805,724.859619 803.806824,726.224915 803.947327,727.649597 
	C804.637878,734.653320 807.036072,735.685913 813.507935,732.367249 
	C819.327332,729.383057 825.366455,726.768188 831.480347,724.441284 
	C834.770081,723.189270 838.521606,721.963013 841.888062,722.333008 
	C850.363953,723.264709 857.292236,720.953674 863.476013,715.198853 
	C865.222595,713.573303 867.895447,712.723755 870.293518,712.060608 
	C876.307739,710.397583 884.159546,715.335754 888.304749,706.871216 
	C889.453979,704.524536 890.788330,702.174011 892.492371,700.222168 
	C893.973694,698.525513 896.097107,697.389465 897.936829,696.005615 
	C897.591980,698.781006 897.692383,701.704468 896.826599,704.306458 
	C892.626160,716.930176 888.166687,729.467773 883.532593,742.294006 
z"/>
<path fill="#69C653" opacity="1.000000" stroke="none" 
	d="
M355.623566,490.189697 
	C361.826874,491.565247 366.722382,489.722473 372.062958,486.726715 
	C376.595490,484.184265 382.436401,483.945496 387.719574,482.783752 
	C389.957184,482.291748 392.282196,482.187073 394.509827,481.661804 
	C400.380341,480.277557 406.009338,480.658325 411.314026,483.678864 
	C414.747711,485.634003 418.140533,486.738647 422.181793,485.243378 
	C423.945801,484.590698 426.128662,485.147095 428.106903,484.982086 
	C434.246704,484.469910 440.370697,483.654877 446.518982,483.406464 
	C449.537262,483.284515 452.595642,484.153961 455.870483,484.889496 
	C448.693665,495.705658 441.282257,506.207062 433.228821,516.859619 
	C430.999847,516.982056 429.350922,516.658203 427.836731,516.976135 
	C421.516266,518.303162 415.625366,522.047485 408.719025,520.138245 
	C408.011414,519.942566 406.928345,520.811401 406.115479,521.335144 
	C397.590576,526.828369 387.966614,528.468506 378.165527,530.184509 
	C368.373413,531.899048 358.239075,533.148193 349.789764,539.462769 
	C345.511230,542.660400 340.760010,545.069702 335.057312,543.998718 
	C339.550964,525.274780 346.960907,507.656494 355.623566,490.189697 
z"/>
<path fill="#72CA4D" opacity="1.000000" stroke="none" 
	d="
M937.686584,380.318665 
	C936.727600,380.443665 935.623413,380.278748 934.813232,380.691254 
	C927.985779,384.167969 920.600769,383.867950 913.987732,381.545715 
	C907.171570,379.152161 900.958191,380.631683 894.463013,381.343445 
	C893.485291,381.450592 892.536377,381.915192 891.563354,381.955841 
	C882.464539,382.336121 873.332275,383.301880 864.269714,382.861481 
	C847.294312,382.036652 830.371887,380.162781 813.400818,379.189362 
	C806.329834,378.783783 799.191833,379.678436 792.081909,379.756500 
	C788.976196,379.790558 785.864319,379.258759 782.325317,378.969910 
	C788.352783,367.433044 796.889771,357.655273 807.526123,348.951599 
	C808.426636,348.484009 808.723022,348.197144 809.019470,347.910278 
	C809.019470,347.910278 809.325684,347.753448 809.493591,347.789734 
	C814.371521,349.879242 818.960876,352.320312 823.837769,353.836945 
	C826.660217,354.714752 829.945679,354.148621 833.022827,354.153046 
	C839.594604,354.162476 846.166321,354.115326 852.738098,354.100525 
	C862.792847,354.077850 872.850647,353.901031 882.901489,354.090179 
	C893.015442,354.280487 903.122253,354.844849 913.232666,355.231812 
	C917.962097,355.412842 922.694580,355.522308 927.422058,355.742218 
	C929.818481,355.853699 932.360291,355.684753 934.569214,356.432220 
	C940.548584,358.455597 941.137024,358.315277 943.126404,352.500366 
	C943.311340,351.959839 943.936707,351.570068 944.723572,351.048889 
	C943.093079,359.798798 941.096619,368.610107 938.502808,377.804504 
	C937.842773,378.882935 937.780151,379.578278 937.717468,380.273590 
	C937.717468,380.273590 937.677673,380.296387 937.686584,380.318665 
z"/>
<path fill="#1EB9AA" opacity="1.000000" stroke="none" 
	d="
M582.622437,835.075012 
	C584.393921,836.076111 585.779663,836.946777 587.605713,838.094177 
	C587.292908,838.824768 587.046631,840.162659 586.282166,841.058044 
	C582.260681,845.768433 577.084900,849.832397 574.300964,855.160950 
	C571.730591,860.080750 569.796631,861.453796 564.076294,861.157959 
	C561.313965,861.015015 558.162048,867.157043 555.312561,870.558838 
	C554.179443,871.911499 553.381042,873.545898 552.440918,875.058533 
	C550.767273,877.751526 549.180908,880.503113 547.405884,883.127197 
	C546.170044,884.954224 544.964478,886.996826 543.243713,888.259338 
	C539.828674,890.764648 538.329590,895.739685 533.161804,896.101440 
	C532.711975,896.132935 532.417725,898.125610 532.018433,899.195007 
	C531.117920,901.606750 530.196960,904.010803 529.126221,906.745728 
	C528.792419,907.076233 528.616638,907.079041 528.152588,906.620972 
	C526.241455,905.782104 524.618652,905.404175 522.995850,905.026184 
	C507.185425,897.830994 491.374969,890.635803 475.286560,882.856567 
	C476.332886,876.007507 481.536377,873.532593 486.616516,872.212830 
	C492.124695,870.781860 496.786774,869.476196 498.185547,863.143188 
	C498.432068,862.027100 499.660034,860.961670 500.682648,860.210327 
	C506.765747,855.741211 512.891174,851.327576 519.075806,847.000244 
	C520.542114,845.974121 522.345825,845.443665 523.891968,844.514832 
	C525.678345,843.441772 527.582092,842.410828 529.033081,840.959839 
	C534.631897,835.360779 542.113708,833.752380 549.261047,832.416382 
	C552.338745,831.841064 555.228149,832.402527 557.200195,829.412048 
	C565.545715,831.256287 573.891174,833.100464 582.622437,835.075012 
z"/>
<path fill="#25BBA2" opacity="1.000000" stroke="none" 
	d="
M556.932495,829.240479 
	C555.228149,832.402527 552.338745,831.841064 549.261047,832.416382 
	C542.113708,833.752380 534.631897,835.360779 529.033081,840.959839 
	C527.582092,842.410828 525.678345,843.441772 523.891968,844.514832 
	C522.345825,845.443665 520.542114,845.974121 519.075806,847.000244 
	C512.891174,851.327576 506.765747,855.741211 500.682648,860.210327 
	C499.660034,860.961670 498.432068,862.027100 498.185547,863.143188 
	C496.786774,869.476196 492.124695,870.781860 486.616516,872.212830 
	C481.536377,873.532593 476.332886,876.007507 475.005859,882.647461 
	C462.774048,874.893555 450.544952,866.764771 438.157440,857.977661 
	C439.533081,852.435364 442.749054,849.210327 447.471741,847.253662 
	C449.724152,846.320496 451.918488,845.088989 453.874176,843.636047 
	C456.599365,841.611511 458.774078,838.652649 461.724762,837.166870 
	C467.200348,834.409729 473.559082,833.464233 477.679718,828.085205 
	C478.677765,826.782349 481.227142,826.681824 483.050079,825.993652 
	C485.472748,825.079163 487.952301,824.276611 490.282288,823.164001 
	C494.257477,821.265625 498.162994,819.215027 502.046143,817.132080 
	C505.832367,815.101013 509.553894,812.949280 513.303833,810.850525 
	C525.994568,816.410095 538.685364,821.969666 551.751892,827.895142 
	C552.413147,828.203125 552.698669,828.145386 552.984131,828.087646 
	C554.210999,828.414673 555.437927,828.741760 556.932495,829.240479 
z"/>
<path fill="#60C45A" opacity="1.000000" stroke="none" 
	d="
M334.872742,544.324707 
	C340.760010,545.069702 345.511230,542.660400 349.789764,539.462769 
	C358.239075,533.148193 368.373413,531.899048 378.165527,530.184509 
	C387.966614,528.468506 397.590576,526.828369 406.115479,521.335144 
	C406.928345,520.811401 408.011414,519.942566 408.719025,520.138245 
	C415.625366,522.047485 421.516266,518.303162 427.836731,516.976135 
	C429.350922,516.658203 430.999847,516.982056 432.974731,517.070435 
	C428.013916,528.548279 422.665161,539.966309 416.764954,551.698975 
	C413.921143,554.479675 411.527435,556.860718 409.368256,559.438232 
	C407.599670,561.549377 407.722168,565.326477 403.417877,565.088745 
	C400.494598,564.927246 397.376740,566.346252 394.603943,565.784607 
	C387.693268,564.384705 381.159973,563.324158 375.511871,569.071045 
	C374.741699,569.854675 372.989288,569.596130 371.759644,570.018066 
	C366.527985,571.813416 361.239594,573.482361 356.127502,575.577148 
	C349.808716,578.166504 343.664825,581.180237 337.386871,583.874390 
	C336.598938,584.212524 335.441315,583.794189 334.479736,583.602234 
	C331.948853,583.097046 329.431610,582.523499 326.908936,581.977173 
	C329.502045,569.535034 332.095123,557.092834 334.872742,544.324707 
z"/>
<path fill="#34BC92" opacity="1.000000" stroke="none" 
	d="
M451.128326,757.688721 
	C461.018738,767.772095 470.909149,777.855469 480.921082,788.566772 
	C479.282013,789.498047 477.521423,789.801392 477.014252,789.888794 
	C475.009583,791.322205 473.639496,792.568848 472.050293,793.392639 
	C464.893616,797.102661 456.123352,797.706177 450.596069,804.572144 
	C450.421844,804.788574 449.960754,804.748413 449.677185,804.906433 
	C447.319672,806.219788 444.507019,807.099365 442.702393,808.956116 
	C434.769318,817.118286 426.590240,824.770325 415.220032,827.925720 
	C412.123230,828.785156 410.460266,830.824280 410.927612,834.215942 
	C400.180786,821.367126 389.433929,808.518311 378.972992,795.349854 
	C381.298035,794.961609 383.661835,795.545898 385.323914,794.719238 
	C396.688843,789.066895 407.874756,783.056335 419.184082,777.289978 
	C425.420044,774.110352 431.543671,770.402222 438.159119,768.364868 
	C444.305145,766.472168 448.173401,762.908142 451.128326,757.688721 
z"/>
<path fill="#3CBD86" opacity="1.000000" stroke="none" 
	d="
M451.038116,757.371948 
	C448.173401,762.908142 444.305145,766.472168 438.159119,768.364868 
	C431.543671,770.402222 425.420044,774.110352 419.184082,777.289978 
	C407.874756,783.056335 396.688843,789.066895 385.323914,794.719238 
	C383.661835,795.545898 381.298035,794.961609 378.838440,795.004761 
	C370.870148,782.266418 363.322357,769.553467 355.679871,756.485962 
	C360.442352,755.783447 365.450134,756.063477 370.122040,754.943115 
	C377.490967,753.175903 384.859802,750.989075 391.798706,747.986267 
	C396.945923,745.758850 401.088684,741.183105 406.252472,739.027283 
	C414.705322,735.498169 417.517822,726.810791 423.950317,721.578857 
	C424.702362,720.967102 425.606628,720.542542 426.797852,719.986938 
	C435.086243,732.313477 443.017090,744.684265 451.038116,757.371948 
z"/>
<path fill="#5AC261" opacity="1.000000" stroke="none" 
	d="
M326.718872,582.318604 
	C329.431610,582.523499 331.948853,583.097046 334.479736,583.602234 
	C335.441315,583.794189 336.598938,584.212524 337.386871,583.874390 
	C343.664825,581.180237 349.808716,578.166504 356.127502,575.577148 
	C361.239594,573.482361 366.527985,571.813416 371.759644,570.018066 
	C372.989288,569.596130 374.741699,569.854675 375.511871,569.071045 
	C381.159973,563.324158 387.693268,564.384705 394.603943,565.784607 
	C397.376740,566.346252 400.494598,564.927246 403.417877,565.088745 
	C407.722168,565.326477 407.599670,561.549377 409.368256,559.438232 
	C411.527435,556.860718 413.921143,554.479675 416.572144,552.006165 
	C413.351074,566.745911 409.771332,581.493225 405.719452,596.657898 
	C402.117340,599.391541 399.298492,602.789612 395.792389,603.797913 
	C388.561890,605.877258 380.968597,606.703674 373.516205,607.997498 
	C371.047424,608.426147 368.374146,608.260315 366.113556,609.164307 
	C362.925995,610.439087 360.135468,612.675354 356.996552,614.109558 
	C350.893921,616.897705 342.755432,613.305237 337.871429,620.141052 
	C337.632385,620.475647 336.979584,620.574341 336.497223,620.665833 
	C332.318207,621.458191 328.134125,622.223877 323.951538,622.997437 
	C324.810638,609.551636 325.669739,596.105896 326.718872,582.318604 
z"/>
<path fill="#16C2BE" opacity="1.000000" stroke="none" 
	d="
M898.072449,695.742371 
	C896.097107,697.389465 893.973694,698.525513 892.492371,700.222168 
	C890.788330,702.174011 889.453979,704.524536 888.304749,706.871216 
	C884.159546,715.335754 876.307739,710.397583 870.293518,712.060608 
	C867.895447,712.723755 865.222595,713.573303 863.476013,715.198853 
	C857.292236,720.953674 850.363953,723.264709 841.888062,722.333008 
	C838.521606,721.963013 834.770081,723.189270 831.480347,724.441284 
	C825.366455,726.768188 819.327332,729.383057 813.507935,732.367249 
	C807.036072,735.685913 804.637878,734.653320 803.947327,727.649597 
	C803.806824,726.224915 803.062805,724.859619 802.298523,723.233459 
	C807.281921,709.563049 812.563843,696.126038 818.356384,682.422485 
	C819.618347,683.758362 820.048706,685.658997 821.196045,686.893188 
	C822.913940,688.741150 825.078125,691.353577 827.154785,691.450500 
	C831.921387,691.673157 836.830750,690.947449 841.536072,689.930420 
	C851.031616,687.877930 860.412720,685.302612 869.873413,683.080688 
	C877.592468,681.267700 884.695007,676.650208 893.327026,678.793762 
	C896.299255,679.531921 899.321350,677.714050 900.571716,674.062378 
	C901.203430,672.217407 902.740356,670.682434 903.868042,669.007324 
	C902.592773,676.174194 901.317505,683.341064 899.528442,690.883545 
	C899.021484,692.175171 899.028198,693.091248 899.034912,694.007263 
	C898.759338,694.497864 898.483765,694.988464 898.072449,695.742371 
z"/>
<path fill="#38C79C" opacity="1.000000" stroke="none" 
	d="
M907.064270,609.544922 
	C900.726379,611.363892 894.483032,612.836731 888.189209,614.047729 
	C882.709290,615.102173 877.199402,616.217468 871.652161,616.635925 
	C867.340576,616.961243 862.951843,616.238953 858.595337,616.023682 
	C857.945618,615.991577 857.182861,616.004517 856.643982,616.304688 
	C847.283264,621.518188 837.101746,620.062012 826.667480,620.005676 
	C825.227051,609.948792 824.211365,599.890747 823.594360,589.478271 
	C828.102539,588.451843 832.216614,587.182556 836.320679,587.214111 
	C851.720459,587.332581 866.340332,579.767029 882.069397,582.861938 
	C885.322632,583.502136 889.209045,581.394531 892.297791,582.292664 
	C897.153564,583.704590 900.238586,582.016235 903.262390,578.872925 
	C904.444946,586.127502 905.719788,593.368774 906.763123,600.643311 
	C907.161072,603.417969 907.027954,606.268860 907.064270,609.544922 
z"/>
<path fill="#45C98E" opacity="1.000000" stroke="none" 
	d="
M903.220093,578.516724 
	C900.238586,582.016235 897.153564,583.704590 892.297791,582.292664 
	C889.209045,581.394531 885.322632,583.502136 882.069397,582.861938 
	C866.340332,579.767029 851.720459,587.332581 836.320679,587.214111 
	C832.216614,587.182556 828.102539,588.451843 823.629272,589.069092 
	C823.125977,588.273987 822.986511,587.533752 823.105774,586.277588 
	C823.042236,585.181946 822.719971,584.602173 822.397705,584.022400 
	C820.838623,577.670532 819.279480,571.318604 817.657349,564.570190 
	C826.606323,562.448975 835.617310,560.718506 844.631348,559.004395 
	C846.727661,558.605713 848.983032,558.624207 850.911011,557.832092 
	C859.364807,554.358704 867.916260,553.791687 877.036255,554.706360 
	C883.612244,555.365845 890.425049,553.665283 897.532410,553.009460 
	C899.681763,559.701050 901.430908,566.400513 902.906372,573.667236 
	C902.767517,574.827271 902.902283,575.420166 903.037109,576.013000 
	C903.084045,576.728882 903.130981,577.444702 903.220093,578.516724 
z"/>
<path fill="#46BD44" opacity="1.000000" stroke="none" 
	d="
M889.038879,457.014862 
	C874.054504,468.739136 857.510681,477.466278 839.173462,482.620605 
	C819.236023,488.224731 798.945190,489.468018 778.408508,487.038666 
	C777.493164,486.930359 776.608032,486.566528 774.427917,485.972992 
	C783.641663,475.571106 792.274109,465.825439 801.515747,456.100708 
	C804.680725,460.759186 814.605408,464.733063 820.258057,463.829041 
	C829.371643,462.371460 838.539612,461.253540 847.685303,459.997467 
	C854.220459,459.099915 861.086060,459.171783 867.208862,457.073730 
	C874.759338,454.486481 881.775085,456.034821 889.038879,457.014862 
z"/>
<path fill="#4FBF3E" opacity="1.000000" stroke="none" 
	d="
M889.348022,456.900421 
	C881.775085,456.034821 874.759338,454.486481 867.208862,457.073730 
	C861.086060,459.171783 854.220459,459.099915 847.685303,459.997467 
	C838.539612,461.253540 829.371643,462.371460 820.258057,463.829041 
	C814.605408,464.733063 804.680725,460.759186 801.786316,455.935486 
	C807.019348,449.456635 812.591064,443.163940 818.630615,437.061462 
	C821.452271,438.164795 823.858704,439.974762 826.151062,439.840302 
	C837.819824,439.155487 849.454285,437.907867 861.109863,436.969727 
	C878.187988,435.595062 895.273926,434.315826 912.356506,432.995911 
	C906.732544,439.232910 901.108643,445.469879 895.010864,451.935638 
	C894.325623,452.311218 894.167419,452.502075 894.062378,452.737000 
	C892.593994,454.086670 891.125549,455.436310 889.348022,456.900421 
z"/>
<path fill="#5BC23B" opacity="1.000000" stroke="none" 
	d="
M912.615356,432.816040 
	C895.273926,434.315826 878.187988,435.595062 861.109863,436.969727 
	C849.454285,437.907867 837.819824,439.155487 826.151062,439.840302 
	C823.858704,439.974762 821.452271,438.164795 818.923279,436.885254 
	C826.322937,427.489502 833.897766,418.460175 841.755493,409.262756 
	C843.698669,414.851776 847.506470,416.684448 853.356079,416.077423 
	C862.544800,415.123840 871.779358,414.432495 881.010803,414.134827 
	C886.686035,413.951843 892.391052,414.964691 898.083679,414.977325 
	C904.939148,414.992523 911.795837,414.521240 918.651550,414.248901 
	C920.140869,414.189758 921.628113,414.081177 923.554077,413.996094 
	C920.285950,420.209900 916.580017,426.423035 912.615356,432.816040 
z"/>
<path fill="#5BC23B" opacity="1.000000" stroke="none" 
	d="
M773.466431,394.968079 
	C773.762695,395.580444 773.881287,396.416412 773.760437,397.216156 
	C773.640381,398.010437 773.279297,398.768250 773.049255,399.465271 
	C775.521301,403.322845 778.393005,403.447144 782.681152,402.524231 
	C788.809265,401.205292 795.285217,401.384674 801.620850,401.180481 
	C808.329773,400.964325 815.055725,400.840759 821.760132,401.076538 
	C825.998108,401.225586 830.198486,402.243591 834.438416,402.609924 
	C837.143677,402.843628 839.890381,402.598572 842.847656,402.870422 
	C832.964478,411.714722 822.852173,420.256775 811.999878,428.900177 
	C808.148376,428.668091 805.017334,427.928314 801.929016,428.076874 
	C792.369446,428.536682 782.817444,429.231903 773.280212,430.044128 
	C768.426636,430.457458 765.665222,428.563904 764.908630,423.758331 
	C767.667053,414.230835 770.425476,404.703339 773.466431,394.968079 
z"/>
<path fill="#4FBF3E" opacity="1.000000" stroke="none" 
	d="
M764.558960,423.903503 
	C765.665222,428.563904 768.426636,430.457458 773.280212,430.044128 
	C782.817444,429.231903 792.369446,428.536682 801.929016,428.076874 
	C805.017334,427.928314 808.148376,428.668091 811.691406,429.021790 
	C803.840149,436.917480 795.545593,444.780487 787.277954,452.671844 
	C779.118896,460.459686 770.987183,468.276245 761.884644,475.839661 
	C759.006470,458.326599 759.576355,441.118744 764.558960,423.903503 
z"/>
<path fill="#0DC1C3" opacity="1.000000" stroke="none" 
	d="
M755.983521,784.981812 
	C752.123596,790.158325 748.645142,795.695068 744.241516,800.358032 
	C742.063904,802.664001 740.333740,799.614990 739.091919,797.207031 
	C742.994141,793.667114 747.038757,790.459595 751.681152,787.066345 
	C753.513733,786.247681 754.748596,785.614746 755.983521,784.981812 
z"/>
<path fill="#06BDC4" opacity="1.000000" stroke="none" 
	d="
M732.463013,897.023499 
	C727.911194,895.237366 726.660034,892.825317 729.234375,891.115723 
	C730.778992,890.090088 733.018433,890.110840 734.945618,889.661377 
	C734.490967,891.123474 734.033325,892.584717 733.583069,894.048157 
	C733.394775,894.659912 733.222046,895.276550 733.065674,896.223633 
	C732.968628,896.691406 732.848083,896.826538 732.463013,897.023499 
z"/>
<path fill="#4CBE70" opacity="1.000000" stroke="none" 
	d="
M404.216003,629.678284 
	C403.839905,626.825256 403.678772,623.647583 403.831299,620.201660 
	C404.240265,623.073486 404.335602,626.213562 404.216003,629.678284 
z"/>
<path fill="#1EC4B6" opacity="1.000000" stroke="none" 
	d="
M756.093445,784.764648 
	C754.748596,785.614746 753.513733,786.247681 751.921021,786.848450 
	C753.501526,784.958557 755.439880,783.100891 757.689087,781.135254 
	C757.745056,781.818909 757.490173,782.610596 757.107788,783.692261 
	C756.661560,784.088562 756.402588,784.276978 756.093445,784.764648 
z"/>
<path fill="#1EC4B6" opacity="1.000000" stroke="none" 
	d="
M772.553711,765.802368 
	C771.801453,767.069824 770.760071,768.494812 769.364502,769.955444 
	C770.095032,768.647339 771.179810,767.303589 772.553711,765.802368 
z"/>
<path fill="#16B9B2" opacity="1.000000" stroke="none" 
	d="
M523.263184,905.231262 
	C524.618652,905.404175 526.241455,905.782104 527.926270,906.485596 
	C526.502319,906.352844 525.016418,905.894592 523.263184,905.231262 
z"/>
<path fill="#1EC4B6" opacity="1.000000" stroke="none" 
	d="
M907.238647,630.718628 
	C906.915039,629.509949 906.691833,627.985535 906.746338,626.231323 
	C907.129028,627.468567 907.234009,628.935730 907.238647,630.718628 
z"/>
<path fill="#0DC1C3" opacity="1.000000" stroke="none" 
	d="
M881.447754,747.261475 
	C880.733887,746.287231 880.249146,745.121216 879.764404,743.955139 
	C880.549866,744.029114 881.335388,744.103027 882.281494,744.519775 
	C882.187012,745.598389 881.931885,746.334045 881.447754,747.261475 
z"/>
<path fill="#72C932" opacity="1.000000" stroke="none" 
	d="
M945.496338,346.916809 
	C945.301819,346.098053 945.403381,345.101868 945.856445,344.087646 
	C946.069397,344.959534 945.930908,345.849457 945.496338,346.916809 
z"/>
<path fill="#1EC4B6" opacity="1.000000" stroke="none" 
	d="
M907.282593,620.652222 
	C906.810913,619.952332 906.414429,618.850281 906.311401,617.369995 
	C906.795044,616.993286 906.985229,616.994873 907.175476,616.996460 
	C907.236267,618.080994 907.296997,619.165588 907.282593,620.652222 
z"/>
<path fill="#38C79C" opacity="1.000000" stroke="none" 
	d="
M822.347168,584.291504 
	C822.719971,584.602173 823.042236,585.181946 823.133179,585.900269 
	C822.700073,585.546143 822.498352,585.053406 822.347168,584.291504 
z"/>
<path fill="#38C79C" opacity="1.000000" stroke="none" 
	d="
M903.191956,575.839233 
	C902.902283,575.420166 902.767517,574.827271 902.875916,574.091064 
	C903.195068,574.520325 903.270996,575.092896 903.191956,575.839233 
z"/>
<path fill="#1EB9AA" opacity="1.000000" stroke="none" 
	d="
M552.745178,827.984009 
	C552.698669,828.145386 552.413147,828.203125 552.056763,828.082642 
	C552.159302,827.896362 552.332764,827.888306 552.745178,827.984009 
z"/>
<path fill="#46BD44" opacity="1.000000" stroke="none" 
	d="
M894.248779,452.677063 
	C894.167419,452.502075 894.325623,452.311218 894.702148,452.074402 
	C894.816040,452.258698 894.671997,452.469574 894.248779,452.677063 
z"/>
<path fill="#80CE2D" opacity="1.000000" stroke="none" 
	d="
M808.691650,347.909119 
	C808.723022,348.197144 808.426636,348.484009 807.815186,348.820312 
	C807.788086,348.549133 808.075928,348.228546 808.691650,347.909119 
z"/>
<path fill="#7ECE47" opacity="1.000000" stroke="none" 
	d="
M444.604065,383.702698 
	C444.466431,384.040985 444.039734,384.478882 443.282532,384.946167 
	C443.406372,384.584503 443.860718,384.193420 444.604065,383.702698 
z"/>
<path fill="#38C79C" opacity="1.000000" stroke="none" 
	d="
M907.233521,616.743164 
	C906.985229,616.994873 906.795044,616.993286 906.320190,616.989380 
	C906.248108,616.719788 906.460754,616.452576 906.915161,616.086670 
	C907.201782,616.155212 907.246643,616.322571 907.233521,616.743164 
z"/>
<path fill="#69C635" opacity="1.000000" stroke="none" 
	d="
M938.009338,380.098572 
	C937.780151,379.578278 937.842773,378.882935 938.290100,378.050812 
	C938.550232,378.583862 938.425720,379.253693 938.009338,380.098572 
z"/>
<path fill="#7ECE47" opacity="1.000000" stroke="none" 
	d="
M535.351685,428.308472 
	C535.330444,428.128326 535.546997,427.904327 535.882019,427.844971 
	C536.000488,428.009613 535.589478,428.264618 535.351685,428.308472 
z"/>
<path fill="#5BC23B" opacity="1.000000" stroke="none" 
	d="
M773.795654,394.159424 
	C774.093872,394.189514 774.252991,394.387421 774.412109,394.585327 
	C774.295105,394.654083 774.178101,394.722870 773.850464,394.777222 
	C773.639771,394.762756 773.656616,394.327240 773.795654,394.159424 
z"/>
<path fill="#FEFEFE" opacity="1.000000" stroke="none" 
	d="
M589.963074,658.851013 
	C584.209778,648.364258 586.357727,637.432129 595.074524,631.515015 
	C603.867615,625.545959 614.916992,627.179260 621.451721,635.413940 
	C628.146179,643.849915 626.941406,656.032288 618.748230,662.750183 
	C609.588013,670.260986 598.429443,668.864014 589.963074,658.851013 
z"/>
</svg>
