<svg xmlns="http://www.w3.org/2000/svg" viewBox="0 0 2048 2048">
<path d="M 569.26 69.5446 C 685.65 64.3729 812.39 85.3765 912.505 148.318 C 999.656 203.109 1044.77 281.486 1069.81 379.393 C 1075.16 400.315 1076.1 420.046 1080.68 440.067 C 1082.36 368.158 1091.96 300.849 1140.62 243.448 C 1200.21 173.147 1299.23 136.457 1387.83 120.66 C 1409.39 116.816 1433.92 114.989 1455.79 113.026 C 1445.35 207.881 1425.77 319.589 1368.8 398.679 C 1311.64 478.023 1223.73 489.399 1145.81 429.965 C 1149.11 420.121 1156.75 404.735 1161.51 395.204 C 1193.78 330.661 1243.92 274.997 1297.93 227.71 C 1307.46 219.395 1317.35 211.513 1327.59 204.087 C 1333.8 199.53 1344.76 192.463 1349.43 187.269 C 1296.55 215.492 1248 251.156 1205.25 293.171 C 1138.21 359.88 1098.25 438.219 1097.99 533.851 C 1123.01 535.844 1145.57 537.492 1170.51 540.918 C 1339.92 564.182 1494.09 641.62 1615.89 761.595 C 1666.56 811.725 1710.21 868.48 1745.65 930.315 C 1824.52 1066.48 1859.45 1205.42 1860.8 1362.02 L 1825.23 1362.03 C 1823.67 1292.88 1817.88 1234.94 1801.63 1167.24 C 1762.07 1002.45 1668.86 848.37 1538.44 739.747 C 1506.89 713.464 1475.03 693.313 1440.49 671.876 C 1321.92 604.646 1205.2 571.049 1068.5 570.538 C 864.465 569.031 668.33 649.322 523.922 793.47 C 399.226 918.508 320.303 1081.92 299.893 1257.32 C 295.859 1291.87 295.09 1328.28 295.021 1363.07 L 259.333 1363.13 C 260.142 1307.46 261.917 1257.65 271.373 1202.32 C 288.341 1103.04 329.493 996.083 383.332 910.806 C 411.712 866.756 443.857 825.249 479.407 786.752 C 598.557 657.043 765.497 571.316 938.976 543.716 C 978.285 537.461 1016.72 535.675 1056.35 533.947 C 1056.18 531.017 1055.96 528.09 1055.7 525.167 C 1046.96 431.007 970.345 333.013 899.46 274.64 C 843.228 228.333 772.052 188.963 703.788 163.907 C 698.705 162.042 678.526 153.893 674.338 154.288 C 676.21 155.601 691.721 162.389 695.612 164.43 C 712.823 173.536 729.691 183.278 746.18 193.634 C 838.069 252.177 935.881 338.909 987.468 436.685 C 950.345 462.672 895.23 494.184 850.537 497.536 C 638.961 513.407 567.399 225.501 542.945 70.6568 C 550.555 69.8196 561.391 69.7929 569.26 69.5446 z" fill="rgb(23,153,93)" transform="translate(0,0)"></path>
<path d="M 587.863 1598.9 C 582.812 1582.62 573.127 1564.85 567.372 1547.9 C 505.794 1366.57 544.88 1172.96 671.951 1028.58 C 763.507 925.318 892.111 862.35 1029.83 853.358 C 1135.31 846.407 1240.26 873.253 1329.45 929.999 C 1339.02 936.034 1388.66 968.387 1389.16 976.992 C 1382.38 985.844 1379.05 980.74 1370.86 975.213 C 1312.37 935.735 1243.33 906.534 1173.97 893.171 C 1046.78 868.048 914.824 894.517 807.164 966.746 C 783.889 982.531 763 1000.89 742.851 1020.44 C 650 1110.55 598.833 1233.54 597.777 1363.1 C 596.528 1471.16 629.024 1576.93 690.737 1665.65 C 766.998 1777.45 893.102 1856.16 1025.64 1880.96 C 1175.32 1909.13 1330.05 1876.66 1455.77 1790.69 C 1566.28 1714.64 1660.36 1586.59 1684.97 1453.32 L 1687.41 1455.17 C 1665.38 1624.61 1567.71 1762.39 1427.82 1856.72 C 1162.31 2035.78 782.491 2006.34 557.183 1775.07 C 530.557 1747.74 503.939 1716.01 483.091 1684.16 C 517.153 1658.01 553.399 1626.15 587.863 1598.9 z" fill="rgb(23,153,93)" transform="translate(0,0)"></path>
<path d="M 1452.7 970.076 L 1453.3 970.459 C 1448.34 978.844 1437.6 992.694 1431.66 1000.84 L 1385.02 1064.1 C 1373.05 1080.52 1361.58 1098.2 1349.82 1114.92 L 1283.01 1208.42 C 1225.85 1288.69 1170.48 1370.55 1112.22 1450.08 C 1104.67 1460.56 1097.74 1470 1087.57 1478.18 C 1050.07 1508.33 1007.73 1503.76 972.693 1473.68 C 953.014 1454.91 944.449 1430.72 946.843 1403.76 C 948.423 1385.16 956.374 1367.67 969.354 1354.26 C 978.409 1344.74 1008.62 1324.19 1020.46 1314.71 C 1049.61 1291.38 1079.74 1268.43 1109.11 1245.38 L 1300.41 1092.65 C 1352.28 1051.26 1401.74 1012.86 1452.7 970.076 z" fill="rgb(1,1,0)" transform="translate(0,0)"></path>
<path d="M 1032.93 1372.95 C 1051.31 1369.14 1069.3 1380.98 1073.06 1399.37 C 1076.82 1417.76 1064.92 1435.71 1046.52 1439.42 C 1028.19 1443.1 1010.34 1431.27 1006.6 1412.96 C 1002.85 1394.64 1014.63 1376.75 1032.93 1372.95 z" fill="rgb(255,255,255)" transform="translate(0,0)"></path>
<path d="M 1051 646.473 C 1107.18 645.022 1163.32 650.868 1217.99 663.865 C 1233.86 667.534 1249.06 671.026 1264.28 676.923 C 1248.89 730.243 1228.48 786.533 1210.69 839.599 C 1199.09 836.507 1187.41 833.738 1175.66 831.294 C 1116.81 816.699 1049.46 815.252 989.485 821.383 C 978.771 767.123 968.006 707.999 956.173 654.397 C 994.702 649.163 1011.91 647.14 1051 646.473 z" fill="rgb(48,228,165)" transform="translate(0,0)"></path>
<path d="M 919.387 662.289 C 923.048 661.858 921.669 661.293 924.046 662.986 C 932.991 700.909 940.978 739.408 947.826 777.745 C 950.805 794.426 955.012 810.682 957.594 827.592 C 872.345 846.896 828.408 865.174 753.749 911.735 C 746.238 902.499 738.188 891.096 731.029 881.378 C 708.424 848.78 678.73 809.672 658.032 777.301 C 723.595 733.324 789.323 699.568 865.207 676.362 C 883.476 670.775 900.525 665.608 919.387 662.289 z" fill="rgb(48,228,165)" transform="translate(0,0)"></path>
<path d="M 1697.15 1098.95 L 1698.12 1099.33 C 1699.96 1102.33 1707.17 1123.57 1708.9 1128.46 C 1736.3 1206.1 1746.85 1280.14 1748.03 1361.85 L 1579.75 1361.94 C 1574.46 1361.64 1573.7 1336.95 1573.12 1331.44 C 1567.3 1276.23 1549.36 1228.23 1528.98 1177.28 C 1555.14 1163.92 1581.75 1151.94 1608.38 1139.61 C 1637.77 1125.64 1667.37 1112.09 1697.15 1098.95 z" fill="rgb(131,205,67)" transform="translate(0,0)"></path>
<path d="M 1295.47 688.361 C 1315.07 697.476 1334.37 704.721 1354.4 714.579 C 1431.71 752.624 1483.3 794.106 1544.17 853.117 C 1518.75 870.718 1482 897.841 1457.28 916.839 L 1413.32 950.926 C 1364.35 903.848 1303.39 872.067 1240.38 848.172 C 1259.21 795.066 1277.58 741.794 1295.47 688.361 z" fill="rgb(48,228,165)" transform="translate(0,0)"></path>
<path d="M 630.838 798.989 C 639.847 808.021 655.254 830.008 663.216 841.071 C 684.918 871.227 706.301 901.838 727.868 932.14 C 698.405 952.789 670.105 982.128 645.038 1008.09 C 623.488 1030.4 607.481 1055.17 590.66 1081.08 C 581.493 1076.71 571.827 1072.63 562.5 1068.54 C 525.68 1052.1 489.05 1035.24 452.615 1017.97 C 492.379 933.55 559.509 858.241 630.838 798.989 z" fill="rgb(23,153,93)" transform="translate(0,0)"></path>
<path d="M 436.434 1047.47 C 482.004 1065.77 529.716 1087.97 574.037 1109.03 C 533.87 1184.57 517.383 1240.01 507.104 1324.76 C 507.082 1327.45 507.426 1329.32 505.889 1331.43 C 499.782 1332.47 473.894 1331.89 466.09 1331.88 L 376.793 1331.83 C 376.876 1244.79 390.496 1170.1 420.058 1088.53 C 425.16 1074.46 431.248 1061.34 436.434 1047.47 z" fill="rgb(23,153,93)" transform="translate(0,0)"></path>
<path d="M 1558.71 868.696 C 1616.8 937.617 1646.18 987.574 1687.28 1067.42 C 1670.03 1076.5 1649.23 1085.55 1631.39 1093.72 C 1605.94 1105.32 1580.6 1117.17 1555.38 1129.26 C 1543.74 1134.1 1528.33 1141.95 1516.59 1147.46 C 1502.31 1117.43 1482.07 1089.5 1462.61 1062.56 C 1457.45 1055.41 1450.58 1048.29 1444.92 1040.78 C 1450.14 1034.69 1453.93 1029.17 1458.54 1022.7 C 1494.16 972.776 1526.02 920.591 1558.71 868.696 z" fill="rgb(131,205,67)" transform="translate(0,0)"></path>
<path d="M 377.642 1364.02 L 505.424 1364.72 C 506.988 1457.59 517.633 1501.9 548.663 1587.93 C 536.525 1598.19 523.799 1608.42 511.5 1618.54 C 496.494 1631.36 481.285 1643.94 465.881 1656.28 C 456.58 1643.93 446.077 1621.04 439.247 1606.79 C 401.454 1527.97 383.861 1450.69 377.642 1364.02 z" fill="rgb(23,153,93)" transform="translate(0,0)"></path>
<path d="M 664.362 513.981 C 668.774 518.05 681.872 536.956 685.597 542.44 C 657.801 556.687 629.995 570.739 603.32 587.047 C 508.917 645 426.656 720.721 361.099 810.011 C 340.667 838.251 318.391 876.011 302.188 906.755 C 293.174 923.976 284.992 941.62 277.671 959.626 C 271.973 973.733 266.203 990.011 259.153 1003.4 C 257.742 1006.09 254.708 1008.02 252.155 1009.61 C 228.307 1012.31 227.867 995.907 234.208 978.088 C 293.387 811.79 415.449 668.683 562.53 572.721 C 595.696 551.082 629.966 532.227 664.362 513.981 z" fill="rgb(1,1,0)" transform="translate(0,0)"></path>
<path d="M 225.272 1034.96 C 235.441 1034.91 238.584 1040.36 242.784 1048.73 C 237.998 1067.12 234.131 1088.84 227.88 1106.32 C 226.273 1110.81 221.742 1112.72 217.514 1114.22 C 187.549 1112.85 208.605 1068.18 212.002 1051.98 C 213.715 1043.82 217.753 1038.61 225.272 1034.96 z" fill="rgb(1,1,0)" transform="translate(0,0)"></path>
<path d="M 201.011 1139.13 C 218.784 1139.08 219.89 1146.65 218.533 1162.68 C 217.515 1174.7 216.697 1187.8 214.032 1199.59 C 213.112 1203.66 207.208 1206.75 203.818 1208.49 C 183.761 1208.5 184.385 1190.96 186.285 1175.71 C 188.01 1161.87 186.861 1145.75 201.011 1139.13 z" fill="rgb(1,1,0)" transform="translate(0,0)"></path>
<path d="M 1684.97 1453.32 C 1686.25 1447.11 1687.5 1439.71 1689.73 1433.93 C 1688.91 1440.03 1688.41 1450.15 1687.41 1455.17 L 1684.97 1453.32 z" fill="rgb(102,186,154)" transform="translate(0,0)"></path>
<metadata><recraft-signature>{"signed_by": "recraft", "signature_b64": "N++TbK0GoD3agipU1Nv2i1r3rGPJLMP0J9vsk069do1gzHbIb0StWCnsQnwXXy/vgOscG6TVCksfPaHwbJYVBg==", "signing_algo": "Ed25519", "generation_timestamp": 1778559394, "identifier": "3c9abb5e-4606-4742-9257-c6ab3b858251"}</recraft-signature></metadata></svg>
